<svg width="220" height="120" viewBox="0 0 220 120" fill="none" xmlns="http://www.w3.org/2000/svg">
  <rect width="220" height="120" rx="26" fill="url(#bg)"/>
  <g transform="translate(22 18)">
    <rect x="12" y="34" width="152" height="52" rx="18" fill="url(#body)" stroke="url(#edge)" stroke-width="6"/>
    <rect x="32" y="44" width="44" height="28" rx="6" fill="url(#glass)"/>
    <rect x="100" y="44" width="44" height="28" rx="6" fill="url(#glass)"/>
    <rect x="72" y="30" width="32" height="12" rx="6" fill="#FF5468"/>
    <rect x="104" y="30" width="32" height="12" rx="6" fill="#4DF0FF"/>
    <rect x="-6" y="30" width="24" height="60" rx="12" fill="#0F1D34"/>
    <rect x="160" y="30" width="24" height="60" rx="12" fill="#0F1D34"/>
    <text x="40" y="72" fill="#FFFFFF" font-size="18" font-family="'Montserrat', sans-serif" font-weight="700">METRO</text>
    <circle cx="26" cy="92" r="18" fill="#0B0F1A" stroke="#7B8AA6" stroke-width="6"/>
    <circle cx="150" cy="92" r="18" fill="#0B0F1A" stroke="#7B8AA6" stroke-width="6"/>
    <rect x="30" y="16" width="48" height="10" rx="4" fill="#FFD166"/>
    <rect x="118" y="16" width="48" height="10" rx="4" fill="#FF7B7B"/>
  </g>
  <defs>
    <linearGradient id="bg" x1="0" y1="0" x2="220" y2="120" gradientUnits="userSpaceOnUse">
      <stop offset="0" stop-color="#081426"/>
      <stop offset="1" stop-color="#14223A"/>
    </linearGradient>
    <linearGradient id="body" x1="12" y1="34" x2="164" y2="86" gradientUnits="userSpaceOnUse">
      <stop offset="0" stop-color="#1E2C4F"/>
      <stop offset="1" stop-color="#0F1628"/>
    </linearGradient>
    <linearGradient id="edge" x1="12" y1="34" x2="164" y2="86" gradientUnits="userSpaceOnUse">
      <stop offset="0" stop-color="rgba(255,255,255,0.45)"/>
      <stop offset="1" stop-color="rgba(10,16,28,0.8)"/>
    </linearGradient>
    <linearGradient id="glass" x1="0" y1="0" x2="44" y2="28" gradientUnits="userSpaceOnUse">
      <stop offset="0" stop-color="#9DDCFF"/>
      <stop offset="1" stop-color="#1B2944"/>
    </linearGradient>
  </defs>
</svg>
